<svg height="1024pt" preserveAspectRatio="xMidYMid meet" viewBox="0 0 1024 1024" width="1024pt" xmlns="http://www.w3.org/2000/svg"><g transform="matrix(.1 0 0 -.1 0 1024)"><path d="m4175 10194c-44-26-96-55-115-66s-39-24-45-28c-5-4-35-21-65-37-30-17-138-79-240-138s-198-115-215-125c-16-9-48-28-70-40-22-13-56-33-75-45s-69-42-110-66c-88-52-115-77-125-122-9-33-15-1929-7-2004 3-28 9-43 18-43 7 0 46 15 86 34 289 135 493 182 769 179 284-3 562-89 871-272 46-27 99-58 118-68 51-29 516-299 580-337 30-18 111-65 180-105s132-76 140-81c25-16 236-136 251-144 8-4 23-12 34-19 53-33 611-354 745-429 25-14 63-35 85-48 160-90 275-178 400-305 195-198 321-444 366-715 21-126 23-170 21-485-2-401-1-1882 1-2275 2-278-4-400-24-487-5-24-12-60-15-81-10-62-70-235-113-324-50-105-144-245-215-323-32-35-56-69-56-82s3-23 6-23c6 0 93 48 109 60 6 4 31 19 56 33s133 76 240 137c267 155 310 180 379 218 25 13 97 59 160 100 129 86 305 252 382 363 121 172 203 380 233 594 4 22 9 54 11 70 3 17 6 700 6 1520 0 1644 2 1578-63 1797-99 334-321 611-656 819-89 55-222 130-225 127-2-1-24 12-50 30s-49 32-51 32c-3 0-63 33-134 74-70 40-148 84-173 98-249 137-1171 674-1540 896-267 160-476 246-700 287-60 11-342 14-400 4-30-6-64-11-75-13-148-25-371-115-535-215l-65-39-5 1079-5 1079z"/><path d="m2235 9074c-343-196-479-299-625-475-135-162-241-388-276-589-3-14-7-36-10-50-2-14-8-70-11-125-10-138-10-5068-1-5180 5-49 15-121 23-160 9-38 18-79 20-89 25-115 98-272 186-402 92-136 301-328 449-412 19-11 114-66 210-122 96-57 256-150 355-208s234-137 300-176 122-71 125-71 16-8 30-17c24-15 240-141 322-187 52-29 64-36 413-236 171-98 330-189 355-203 25-13 74-41 110-62 310-181 459-247 650-287 120-25 397-25 505 0 66 16 88 22 160 45 151 47 259 104 820 434 224 132 296 185 422 315 216 223 331 483 360 813 10 107 10 2880 1 3015-7 102-10 121-29 210-66 306-227 564-478 766-70 56-254 173-421 267-19 11-210 122-425 247-214 125-410 239-435 253s-74 42-109 64c-34 21-64 38-66 38-3 0-131 73-175 100-22 13-555 320-609 351-278 157-444 249-481 266-92 41-210 81-295 99-107 23-150 27-280 27-270 0-466-56-746-213-58-33-109-60-112-60-4 0-8 481-9 1070l-3 1069zm615-2601c137-39 234-113 245-187 4-23 8-610 10-1306 1-696 5-1276 7-1290 16-86 21-112 34-170 47-203 144-405 271-560 49-60 166-174 228-223 33-26 65-52 72-57 7-6 17-10 23-10 5 0 10-4 10-8 0-5 23-22 51-38s58-34 67-39c10-6 64-37 122-69 58-33 227-129 375-214 149-85 284-163 300-172 17-10 86-50 155-90 68-40 138-81 155-90 16-10 107-62 201-117s177-103 185-107 23-12 34-19c24-14 166-97 215-125 300-170 308-176 341-230 22-36 23-43 23-378l1-342-25 13c-14 7-87 50-164 94-76 45-140 81-143 81-2 0-29 16-59 35s-56 35-59 35-33 17-67 38c-35 21-88 52-118 69s-127 72-215 123c-178 103-181 105-315 182-52 30-194 112-315 182-442 256-537 311-573 332-20 11-107 61-192 111-238 138-420 243-470 271-169 94-318 207-434 331-23 24-46 49-51 55-18 19-109 149-123 174-70 135-82 163-112 251-24 73-56 219-65 301-10 89-12 2910-2 2964 20 112 93 194 192 216 40 9 118 2 185-17zm1620-928c74-43 149-85 165-95 17-9 80-45 140-80 61-34 126-72 145-83s62-35 95-54 67-38 75-43 51-30 95-56c199-116 324-212 435-332 183-197 302-451 334-712 17-137 23-553 16-1153-2-177-5-217-16-213-7 3-79 44-159 91s-147 85-149 85-65 36-141 80-140 80-142 80c-3 0-17 8-31 19-15 10-47 29-72 43-75 42-279 168-375 231-352 232-533 511-601 922-4 22-8 343-9 713l-3 672 32-19c17-10 92-53 166-96z"/></g></svg>